PathFileType	4	(X/Y/Z)	Kaydara																																																																																																																									
DataRate	CameraRate	NumFrames	NumMarkers	Units	OrigDataRate	OrigDataStartFrame	OrigNumFrames																																																																																																																					
30	30	6	41	mm	30	110	125																																																																																																																					
Frame#	Time	EMLA_LFHD			EMLA_RFHD			EMLA_LBHD			EMLA_RBHD			EMLA_LFTShould			EMLA_RFTShould			EMLA_LRRShould			EMLA_RRRShould			EMLA_T10			EMLA_STRN			EMLA_TRUN			EMLA_LSHO			EMLA_LUPA			EMLA_LELB			EMLA_LFRM			EMLA_LWRA			EMLA_LWRB			EMLA_LFIN			EMLA_RSHO			EMLA_RUPA			EMLA_RELB			EMLA_RFRM			EMLA_RWRA			EMLA_RWRB			EMLA_RFIN			EMLA_LFWT			EMLA_RFWT			EMLA_LBWT			EMLA_RBWT			EMLA_LTHI			EMLA_LKNE			EMLA_LSHN			EMLA_LANK			EMLA_LHEE			EMLA_LTOE			EMLA_RTHI			EMLA_RKNE			EMLA_RSHN			EMLA_RANK			EMLA_RHEE			EMLA_RTOE		
		X1	Y1	Z1	X2	Y2	Z2	X3	Y3	Z3	X4	Y4	Z4	X5	Y5	Z5	X6	Y6	Z6	X7	Y7	Z7	X8	Y8	Z8	X9	Y9	Z9	X10	Y10	Z10	X11	Y11	Z11	X12	Y12	Z12	X13	Y13	Z13	X14	Y14	Z14	X15	Y15	Z15	X16	Y16	Z16	X17	Y17	Z17	X18	Y18	Z18	X19	Y19	Z19	X20	Y20	Z20	X21	Y21	Z21	X22	Y22	Z22	X23	Y23	Z23	X24	Y24	Z24	X25	Y25	Z25	X26	Y26	Z26	X27	Y27	Z27	X28	Y28	Z28	X29	Y29	Z29	X30	Y30	Z30	X31	Y31	Z31	X32	Y32	Z32	X33	Y33	Z33	X34	Y34	Z34	X35	Y35	Z35	X36	Y36	Z36	X37	Y37	Z37	X38	Y38	Z38	X39	Y39	Z39	X40	Y40	Z40	X41	Y41	Z41
																																																																																																																												
110	3.643	267.84685	1592.74384	1689.54651	99.12844	1570.33569	1690.76874	278.78378	1607.60529	1540.70358	85.45359	1585.00397	1539.79477	272.85582	1367.96616	1614.70596	128.67672	1360.49652	1618.89847	272.1034	1423.52341	1474.0451	118.2914	1415.94101	1475.76645	209.06988	1253.24463	1413.71933	202.3266	1293.7944	1651.52222	199.95119	1188.67813	1659.4603	398.90537	1388.72528	1567.48978	470.60616	1218.78143	1547.94601	509.95777	1080.64743	1546.75644	505.30392	936.88179	1574.47693	407.93053	815.56961	1676.15631	465.79117	781.32324	1622.57431	459.68048	765.08255	1690.40649	9.30148	1392.0842	1553.93341	-67.92962	1211.60255	1517.09686	-103.78651	1083.73718	1467.48566	-117.30071	983.88077	1438.11462	-41.97302	797.33963	1472.99927	-111.07089	802.59773	1418.81836	-103.24975	751.60805	1459.04129	328.80825	961.52481	1597.84149	91.36012	949.39537	1595.3624	293.10745	981.37199	1400.45792	120.18053	968.68027	1411.0434	350.06382	703.31642	1404.43314	337.28241	492.01309	1432.81189	301.42702	307.63559	1427.62161	295.09104	137.7422	1340.49957	227.45852	67.75484	1269.09607	249.73682	40.36868	1465.82886	79.67258	659.51469	1528.65204	57.19204	511.55659	1687.95853	119.02791	286.39816	1651.33728	100.65974	151.64424	1521.40717	167.05265	119.55227	1468.08762	107.20869	47.7511	1641.37924
111	3.677	264.09479	1584.4455	1760.42755	95.77136	1559.16351	1759.54468	276.83643	1599.00314	1611.63193	83.90387	1573.02032	1608.25073	274.28215	1359.12079	1684.21814	129.3903	1346.24939	1690.89005	272.08757	1414.05014	1542.89536	118.4571	1403.97369	1546.22925	210.50406	1241.84998	1484.04556	205.1313	1283.39966	1722.18597	205.69292	1178.36823	1731.18576	399.47289	1382.53098	1635.74371	478.67554	1213.68553	1629.77722	522.58705	1073.44513	1636.64841	499.75914	936.74065	1684.5636	383.48042	852.09099	1800.36606	432.35138	798.15063	1754.55475	423.63689	794.82872	1824.40399	10.60159	1379.36539	1625.54764	-69.06005	1203.51303	1576.81015	-106.22467	1081.36284	1516.11252	-123.31299	987.29607	1477.71362	-55.65388	795.54291	1487.38312	-127.47684	809.9382	1439.18167	-118.33896	753.32413	1471.37802	339.40754	949.49333	1661.38321	102.90839	936.96167	1678.09525	283.42764	972.63153	1466.80649	112.02207	960.38437	1492.07397	343.8028	703.16452	1449.45587	334.63608	489.09153	1464.59534	298.57307	306.61036	1447.59338	290.45816	142.79596	1349.54147	220.56797	78.70164	1274.63219	249.0099	39.56916	1467.93579	73.30311	655.11871	1618.91098	67.11222	506.34811	1777.56897	122.15368	277.58965	1797.14569	94.48689	109.69857	1717.31537	158.32458	62.85464	1670.93384	107.31497	49.92183	1861.57593
112	3.71	261.24182	1570.79742	1832.34253	93.36652	1543.23334	1829.38782	276.07513	1584.10431	1683.59924	83.53342	1555.35873	1677.61185	277.4271	1339.31183	1757.16797	129.93042	1326.69159	1763.13583	271.60116	1399.37103	1612.89566	118.03998	1386.32416	1618.70483	210.49595	1225.1786	1554.71588	207.6687	1265.68336	1793.21442	210.49343	1160.94421	1803.88474	399.80743	1370.28534	1705.15442	487.383	1203.19969	1709.86954	534.42299	1064.2511	1727.4321	494.86351	939.25919	1793.86597	361.40991	889.82796	1909.68857	405.45448	823.10631	1879.04999	390.24773	832.9702	1947.10724	11.35311	1361.10992	1698.58627	-71.55323	1192.06688	1636.41251	-109.73612	1076.74301	1565.61493	-128.9205	987.5248	1519.17969	-70.47036	792.72346	1515.9758	-139.48614	814.02931	1466.22833	-134.77442	755.14717	1495.27649	345.74696	935.494	1724.65759	113.27071	919.9588	1761.5535	271.78217	960.8651	1536.18423	103.69011	945.35858	1575.3952	333.79387	702.7507	1500.33722	332.88979	487.76028	1499.00055	296.2557	306.09369	1470.12024	283.69324	151.23093	1358.37524	210.86323	93.35279	1282.26852	247.65408	39.12905	1468.99109	79.70358	641.30783	1702.03644	72.96207	489.97337	1857.42661	123.47901	275.82886	1933.32901	88.57124	93.98496	1911.00235	150.01863	33.63947	1875.18112	109.45314	75.85237	2066.88354
113	3.743	258.76575	1554.82346	1905.37567	90.99144	1526.77216	1900.38773	275.84717	1566.05331	1756.6922	83.23499	1536.61835	1748.44772	277.70821	1321.41464	1829.86435	129.76377	1305.90042	1836.62689	270.88198	1382.86194	1685.7164	117.18358	1368.10074	1692.88727	210.46091	1207.90123	1626.44806	209.03992	1246.05156	1866.17081	213.38394	1141.40709	1876.60233	398.49243	1355.84579	1777.75284	490.69527	1194.813	1788.58688	543.82446	1057.23778	1817.22076	492.20539	945.01907	1897.36389	344.73885	923.56918	2004.14856	387.27665	850.65277	1991.48514	365.55943	874.13414	2054.34265	11.38331	1342.55051	1771.9545	-73.84558	1180.34233	1698.24173	-112.21603	1070.802	1620.8812	-132.88274	985.43861	1568.59589	-85.35817	788.11172	1560.15442	-147.2469	815.52055	1504.2421	-150.43045	756.14731	1531.37726	350.31284	920.68497	1792.97836	120.21933	904.65431	1843.91037	261.69292	941.81358	1609.63379	96.88028	923.97324	1658.62	325.40657	700.26985	1561.92871	332.6004	486.82987	1541.95053	296.23571	306.53111	1497.57278	278.56209	163.78283	1372.09518	202.37871	113.16172	1293.82919	246.78453	38.7424	1469.94934	83.72319	610.14656	1769.2601	75.08982	464.22733	1935.84732	124.15078	279.63871	2050.41077	86.02833	98.7232	2069.84207	146.73434	32.01598	2043.34976	114.85271	107.27123	2227.74124
114	3.777	256.09104	1539.51538	1979.12827	88.23009	1512.12112	1972.79755	275.91742	1548.8855	1830.23743	82.25868	1519.53278	1820.42831	276.93125	1304.72229	1904.63791	128.539	1289.59885	1911.70853	269.12798	1365.62195	1759.50195	116.42344	1350.86578	1766.62277	210.07307	1190.08842	1702.15958	208.59215	1230.09392	1942.11624	213.49915	1125.53925	1953.04092	395.83164	1342.11487	1851.93848	492.16972	1183.62106	1869.47845	550.21572	1050.89798	1901.14349	490.84587	949.84612	1989.7937	335.85411	947.45766	2087.28867	376.33461	872.12585	2089.07486	351.90361	906.75842	2145.72464	10.55956	1326.47705	1844.98154	-74.3317	1168.76053	1765.99243	-113.10146	1062.77946	1684.87564	-135.00205	979.93599	1629.20883	-98.13131	780.01884	1619.30466	-153.11929	812.73956	1557.65488	-163.00516	753.19153	1583.81485	351.58993	903.42522	1868.47122	121.95191	891.00281	1925.16815	257.65291	920.3669	1688.1369	93.33751	904.68262	1740.2951	316.67139	690.39406	1633.8414	334.73503	479.0789	1599.97238	297.83911	302.98035	1536.87195	276.36311	177.82425	1394.02908	198.3111	139.37574	1312.64969	245.57358	38.16947	1471.99493	82.57159	595.23518	1865.28839	79.39236	455.79239	2029.29062	129.41452	272.14302	2145.88837	95.20151	91.79386	2170.37613	158.10888	24.55554	2146.64215	119.51957	104.86083	2328.62549
115	3.81	254.12315	1525.64728	2051.38184	86.05871	1499.53232	2044.57443	274.33338	1532.50778	1902.8244	80.80679	1504.80469	1892.17163	274.24847	1292.36328	1980.49973	125.4896	1277.26517	1987.93533	265.8791	1348.68454	1833.40775	115.72678	1334.59076	1840.61966	209.86677	1171.2886	1780.56961	205.65767	1218.18703	2020.12024	210.25124	1113.87474	2033.06335	392.5032	1330.02289	1924.08157	491.99013	1173.55972	1943.99323	553.95805	1043.35129	1976.09085	491.53019	948.95248	2069.99069	334.27429	956.84776	2163.49731	373.40351	881.2751	2173.39081	348.03513	921.59729	2225.48508	9.18089	1313.07098	1916.91772	-74.84334	1157.73094	1836.8924	-113.02989	1051.62697	1755.74219	-135.71207	969.60541	1699.79248	-107.35996	767.90337	1692.84622	-157.85428	803.21709	1628.14011	-171.02676	743.95531	1653.23837	349.98177	885.6781	1952.08206	120.34004	880.09354	2007.51251	257.84082	902.29843	1769.9649	91.52033	892.67715	1820.8876	316.89096	674.47929	1715.67291	344.34208	464.63799	1677.16141	305.98379	297.43805	1590.9639	276.81097	195.15522	1431.27274	194.254	171.40848	1352.76215	244.15831	36.21716	1478.43628	79.60214	589.4635	1957.59033	80.19381	451.85486	2125.49805	137.94945	253.1551	2228.26935	111.98105	69.40246	2219.25995	167.42298	23.48332	2186.80023	135.03441	44.08571	2385.80978
